# xmcd CD database file
#
# Track frame offsets:
#	150
#	21171
#	33878
#	42373
#	58047
#	60895
#	76979
#	91188
#	92530
#	102505
#	104150
#	113804
#	125447
#	136713
#	139439
#	143013
#	159843
#	165834
#	167210
#	176433
#	178795
#	196510
#	208856
#	222173
#	229005
#	242476
#
# Disc length: 3306 seconds
#
# Revision: 1
# Processed by: cddbd v1.5.1PL0 Copyright (c) Steve Scherf et al.
# Submitted via: CDex 1.50
#
DISCID=540ce81a
DTITLE=Wabi Danek - Valassky drtivy styl
DYEAR=1999
DGENRE=Folk
TTITLE0=Tonka
TTITLE1=Shantytown
TTITLE2=Valcisko and Porubsky valcik
TTITLE3=Ranni blues
TTITLE4=Versotepani Plzen
TTITLE5=Pisen, co me ucil listopad
TTITLE6=Vikend
TTITLE7=Versotepani Klenci
TTITLE8=Motorovi trampi
TTITLE9=Versotepani Beroun
TTITLE10=Simonovi
TTITLE11=Indianska
TTITLE12=Valassky drtivy styl
TTITLE13=Versotepani Litovel
TTITLE14=Versotepani Castolovice
TTITLE15=Franta ma pera
TTITLE16=Pisen proti
TTITLE17=Versotepani Praha
TTITLE18=Tece voda, tece
TTITLE19=Versotepani Praha-Kbely
TTITLE20=Outsider waltz
TTITLE21=Zelva
TTITLE22=Kdyz jsem odchazel
TTITLE23=Indianska
TTITLE24=Vikend
TTITLE25=Pisen proti
EXTD=YEAR: 1999
EXTT0=
EXTT1=
EXTT2=
EXTT3=
EXTT4=
EXTT5=
EXTT6=
EXTT7=
EXTT8=
EXTT9=
EXTT10=
EXTT11=
EXTT12=
EXTT13=
EXTT14=
EXTT15=
EXTT16=
EXTT17=
EXTT18=
EXTT19=
EXTT20=
EXTT21=
EXTT22=
EXTT23=
EXTT24=
EXTT25=
PLAYORDER=
